<?xml version="1.0" encoding="UTF-8" standalone="no"?>
<svg
   width="24"
   height="24"
   viewBox="0 0 24 24"
   fill="none"
   stroke="currentColor"
   stroke-width="2"
   stroke-linecap="round"
   stroke-linejoin="round"
   class="lucide lucide-settings"
   version="1.1"
   id="svg1"
   xmlns="http://www.w3.org/2000/svg"
   xmlns:svg="http://www.w3.org/2000/svg">
  <defs
     id="defs1">
    <linearGradient
       id="swatch2">
      <stop
         style="stop-color:#ffffff;stop-opacity:1;"
         offset="0"
         id="stop2" />
    </linearGradient>
  </defs>
  <path
     d="m 12.22,2 h -0.44 a 2,2 0 0 0 -2,2 v 0.18 a 2,2 0 0 1 -1,1.73 L 8.35,6.16 a 2,2 0 0 1 -2,0 L 6.2,6.08 A 2,2 0 0 0 3.47,6.81 L 3.25,7.19 a 2,2 0 0 0 0.73,2.73 l 0.15,0.1 a 2,2 0 0 1 1,1.72 v 0.51 a 2,2 0 0 1 -1,1.74 l -0.15,0.09 a 2,2 0 0 0 -0.73,2.73 l 0.22,0.38 a 2,2 0 0 0 2.73,0.73 l 0.15,-0.08 a 2,2 0 0 1 2,0 l 0.43,0.25 a 2,2 0 0 1 1,1.73 V 20 a 2,2 0 0 0 2,2 h 0.44 a 2,2 0 0 0 2,-2 v -0.18 a 2,2 0 0 1 1,-1.73 l 0.43,-0.25 a 2,2 0 0 1 2,0 l 0.15,0.08 a 2,2 0 0 0 2.73,-0.73 l 0.22,-0.39 a 2,2 0 0 0 -0.73,-2.73 l -0.15,-0.08 a 2,2 0 0 1 -1,-1.74 v -0.5 a 2,2 0 0 1 1,-1.74 L 20.02,9.92 A 2,2 0 0 0 20.75,7.19 L 20.53,6.81 A 2,2 0 0 0 17.8,6.08 l -0.15,0.08 a 2,2 0 0 1 -2,0 L 15.22,5.91 a 2,2 0 0 1 -1,-1.73 V 4 a 2,2 0 0 0 -2,-2 z"
     id="path1"
     style="fill:none;stroke:#ffffff;stroke-linecap:butt;stroke-opacity:1" />
  <circle
     cx="12"
     cy="12"
     r="3"
     id="circle1"
     style="opacity:1;fill:none;fill-opacity:1;fill-rule:evenodd;stroke:#ffffff;stroke-opacity:1" />
</svg>
